<svg version="1" xmlns="http://www.w3.org/2000/svg" width="448" height="448" viewBox="0 0 336.000000 336.000000"><path d="M71.8 114.9c-14.5 4.7-25.2 15.8-30.9 31.7-3 8.4-3.8 27.4-1.5 36.4 6.3 25 25 39.2 49.6 37.7 5.1-.3 10.7-1.3 14-2.6 5.7-2.1 17-10.3 17-12.2 0-.6-2.6-4.1-5.7-7.7-3.2-3.7-5.8-6.9-6-7.1-.1-.2-1.7.9-3.5 2.4-5.3 4.5-10.6 6.5-17.6 6.5-13.4 0-22-8.9-24.2-25.3-2.9-20.8 5.7-37.9 20.8-41.2 4.9-1 10.5.3 16.8 4.1 3.1 1.9 5.8 3.4 5.9 3.4.1 0 3-3.3 6.4-7.4l6.1-7.4-3.7-3.2c-2.1-1.7-6.7-4.5-10.3-6.3-5.8-2.9-7.4-3.2-17-3.4-8.1-.2-11.8.1-16.2 1.6zM252.9 115.3c-16.4 5.7-28.1 20.2-31.9 39.5-1.7 8.6-.8 25 1.9 33.3 4.4 13.7 14.7 24.8 27.9 30 4.7 1.9 7.7 2.3 17.2 2.3 13.2.1 18.9-1.6 27.4-8.1 7.8-6 7.8-6.2 1.1-14-3.2-3.7-6-7-6.2-7.2-.1-.2-1.7.9-3.5 2.4-5.2 4.4-10.7 6.5-17.3 6.5-10.9 0-18.3-5.5-22.5-16.7-1.9-5-2.1-7.3-1.8-17.8.3-11.5.5-12.3 3.8-18.4 7.5-14 20.2-17.6 33.5-9.6 3.2 1.9 5.9 3.5 6 3.5.1 0 3-3.3 6.4-7.4l6.1-7.4-3.7-3.2c-2.1-1.7-6.7-4.5-10.3-6.3-5.8-2.9-7.4-3.2-17-3.5-8.8-.2-11.6.1-17.1 2.1zM128 125v10h28v84h24v-84h29v-20h-81v10z"/></svg>