<svg version="1" xmlns="http://www.w3.org/2000/svg" width="426.667" height="426.667" viewBox="0 0 320.000000 320.000000"><path d="M64.7 107c-10.8 2.7-22.4 11.2-28.7 21-5.8 9-8.3 18.8-8.3 32.5-.1 13.4 1.3 20 6.5 29.7 4.1 7.7 13.1 16.1 21.5 20.1 6.6 3.1 7.2 3.2 19.8 3.2 12.5 0 13.2-.1 19.5-3.2 3.6-1.7 8.5-4.9 11-7.1l4.4-3.9-6.3-7.6-6.4-7.6-4.5 3.5c-8.6 6.5-18.6 7.7-27.4 3.3-10.4-5.3-16.1-23.1-12.8-40.2 3.9-20.9 21.9-30 37.9-19.3l5 3.4 6.2-7.5 6.1-7.4-2.8-3c-1.6-1.7-6.2-4.7-10.3-6.7-6.8-3.3-8.2-3.7-17-3.9-5.3-.1-11.3.2-13.4.7zM246.7 107c-16.7 4.2-30.5 18.7-35.4 37.3-2.2 8.2-2.2 25.1.1 33.6 3.7 14.3 13.4 26.3 26.3 32.4 6.6 3.1 7.2 3.2 19.8 3.2 12.5 0 13.3-.1 19.5-3.1 3.6-1.7 8.5-4.9 11-7.1l4.4-4-6.3-7.6-6.3-7.7-3.1 2.6c-5.8 4.9-10.8 6.8-17.8 6.8-8.8 0-14.9-3.5-19.5-11.2-7.9-13.1-6.6-36.2 2.6-47.4 7.8-9.4 21.9-10.5 32.6-2.3l3.2 2.4 4.8-5.7c2.6-3.1 5.4-6.5 6.3-7.5 1.3-1.6 1.2-2-1.5-4.8-1.6-1.7-6.2-4.7-10.3-6.7-6.8-3.3-8.2-3.7-17-3.9-5.3-.1-11.3.2-13.4.7zM117 118v10h29v85.1l11.8-.3 11.7-.3.3-42.3.2-42.2h29v-20h-82v10z"/></svg>